<svg width="22" height="22" viewBox="0 0 22 22" fill="none" xmlns="http://www.w3.org/2000/svg" xmlns:xlink="http://www.w3.org/1999/xlink">
<path d="M17.02,0.75L21.787,0.75L21.787,21.341L17.02,21.341L17.02,19.192C15.067,21.029 12.957,21.928 10.691,21.928C7.838,21.928 5.494,20.912 3.619,18.841C1.782,16.731 0.844,14.113 0.844,10.987C0.844,7.862 1.782,5.322 3.619,3.251C5.455,1.18 7.76,0.164 10.573,0.164C12.957,0.164 15.106,1.141 17.02,3.134L17.02,0.75ZM5.728,10.987C5.728,12.98 6.276,14.582 7.33,15.793C8.424,17.043 9.792,17.669 11.433,17.669C13.191,17.669 14.637,17.043 15.692,15.832C16.786,14.582 17.333,12.98 17.333,11.065C17.333,9.151 16.786,7.549 15.692,6.299C14.598,5.087 13.191,4.462 11.472,4.462C9.831,4.462 8.463,5.087 7.369,6.338C6.275,7.588 5.728,9.151 5.728,10.987Z" fill="#1D1D1E"/>
</svg>
