<svg width="18" height="22" viewBox="0 0 18 22" fill="none" xmlns="http://www.w3.org/2000/svg" xmlns:xlink="http://www.w3.org/1999/xlink">
<path d="M17.108,1.269L17.108,7.599C16.014,6.271 15.037,5.372 14.178,4.864C13.318,4.356 12.341,4.122 11.208,4.122C9.411,4.122 7.926,4.747 6.754,5.997C5.582,7.247 4.996,8.81 4.996,10.725C4.996,12.639 5.582,14.241 6.715,15.492C7.887,16.742 9.333,17.367 11.13,17.367C12.263,17.367 13.279,17.133 14.139,16.625C14.998,16.156 15.975,15.218 17.108,13.851L17.108,20.141C15.194,21.157 13.24,21.626 11.326,21.626C8.122,21.626 5.465,20.61 3.316,18.539C1.167,16.468 0.112,13.89 0.112,10.803C0.112,7.716 1.206,5.138 3.355,3.028C5.543,0.918 8.2,-0.137 11.365,-0.137C13.396,-0.137 15.311,0.332 17.108,1.308L17.108,1.269Z" fill="#1D1D1E"/>
</svg>
