<svg width="22" height="22" viewBox="0 0 22 22" fill="none" xmlns="http://www.w3.org/2000/svg" xmlns:xlink="http://www.w3.org/1999/xlink">
<path d="M16.77,0.411L21.537,0.411L21.537,21.001L16.77,21.001L16.77,18.853C14.817,20.689 12.707,21.588 10.441,21.588C7.588,21.588 5.244,20.572 3.369,18.501C1.532,16.391 0.595,13.773 0.595,10.647C0.595,7.522 1.532,4.982 3.369,2.911C5.205,0.84 7.51,-0.176 10.284,-0.176C12.668,-0.176 14.817,0.801 16.731,2.794L16.731,0.411L16.77,0.411ZM5.479,10.647C5.479,12.64 6.026,14.242 7.081,15.453C8.175,16.704 9.542,17.329 11.183,17.329C12.941,17.329 14.387,16.704 15.442,15.492C16.536,14.242 17.083,12.64 17.083,10.726C17.083,8.811 16.536,7.209 15.442,5.959C14.348,4.748 12.941,4.122 11.222,4.122C9.581,4.122 8.214,4.748 7.12,5.998C6.026,7.248 5.479,8.811 5.479,10.647Z" fill="#1D1D1E"/>
</svg>
