<svg width="18" height="24" viewBox="0 0 18 24" fill="none" xmlns="http://www.w3.org/2000/svg" xmlns:xlink="http://www.w3.org/1999/xlink">
<path d="M17.108,1.647L17.108,7.977C16.014,6.649 15.037,5.75 14.178,5.242C13.318,4.734 12.341,4.5 11.208,4.5C9.411,4.5 7.926,5.125 6.754,6.375C5.582,7.625 4.996,9.188 4.996,11.103C4.996,13.017 5.582,14.619 6.715,15.87C7.887,17.12 9.333,17.745 11.13,17.745C12.263,17.745 13.279,17.511 14.139,17.003C14.998,16.534 15.975,15.596 17.108,14.229L17.108,20.519C15.194,21.535 13.24,22.004 11.326,22.004C8.122,22.004 5.465,20.988 3.316,18.917C1.167,16.846 0.112,14.268 0.112,11.181C0.112,8.094 1.206,5.515 3.355,3.406C5.543,1.296 8.2,0.241 11.365,0.241C13.396,0.241 15.311,0.71 17.108,1.686L17.108,1.647Z" fill="#1D1D1E"/>
</svg>
