<svg width="88" height="88" viewBox="0 0 88 88" fill="none" xmlns="http://www.w3.org/2000/svg" xmlns:xlink="http://www.w3.org/1999/xlink">
<path d="M59.875,50.708L79.398,84.245L83.741,79.9L77.627,60.748L83.53,54.842L76.151,47.459L74.043,49.569L68.435,31.977L76.742,23.666C80.916,19.49 83.952,14.301 85.554,8.606L88,0L79.398,2.447C73.706,4.05 68.562,7.087 64.345,11.264L56.038,19.574L38.455,13.964L40.563,11.854L33.184,4.472L27.281,10.378L8.138,4.261L3.795,8.606L37.317,28.138L42.672,33.496L24.498,55.728L4.849,49.611L0,54.462L16.192,65.051L7.506,80.491L22.938,71.801L33.522,88L38.371,83.149L32.257,63.49L54.478,45.308L59.833,50.665L59.875,50.708Z" fill="#FFFFFF"/>
</svg>
