<svg width="18" height="22" viewBox="0 0 18 22" fill="none" xmlns="http://www.w3.org/2000/svg" xmlns:xlink="http://www.w3.org/1999/xlink">
<path d="M-0.34,0.749L4.426,0.749L4.426,2.664C6.107,1.023 7.982,0.202 10.053,0.202C12.436,0.202 14.312,0.945 15.64,2.469C16.812,3.758 17.359,5.829 17.359,8.759L17.359,21.379L12.592,21.379L12.592,9.892C12.592,7.861 12.319,6.454 11.733,5.672C11.186,4.891 10.17,4.5 8.724,4.5C7.161,4.5 6.028,5.008 5.364,6.063C4.7,7.079 4.387,8.876 4.387,11.455L4.387,21.379L-0.379,21.379L-0.379,0.788L-0.34,0.749Z" fill="#1D1D1E"/>
</svg>
