<svg width="22" height="34" viewBox="0 0 22 34" fill="none" xmlns="http://www.w3.org/2000/svg" xmlns:xlink="http://www.w3.org/1999/xlink">
<path d="M4.794,32.555L0.027,32.555L0.027,0.75L4.794,0.75L4.794,2.978C6.669,1.102 8.779,0.164 11.162,0.164C14.015,0.164 16.32,1.219 18.156,3.29C20.032,5.361 20.93,7.979 20.93,11.144C20.93,14.308 19.993,16.809 18.156,18.88C16.32,20.912 14.015,21.928 11.24,21.928C8.818,21.928 6.669,20.951 4.754,19.036L4.754,32.555L4.794,32.555ZM16.124,11.183C16.124,9.19 15.577,7.588 14.522,6.377C13.428,5.126 12.061,4.501 10.42,4.501C8.662,4.501 7.255,5.126 6.161,6.338C5.067,7.549 4.52,9.151 4.52,11.104C4.52,13.058 5.067,14.621 6.161,15.871C7.216,17.083 8.623,17.708 10.381,17.708C12.022,17.708 13.389,17.083 14.444,15.832C15.538,14.582 16.085,13.058 16.085,11.183L16.124,11.183Z" fill="#1D1D1E"/>
</svg>
