<svg width="16" height="22" viewBox="0 0 16 22" fill="none" xmlns="http://www.w3.org/2000/svg" xmlns:xlink="http://www.w3.org/1999/xlink">
<path d="M14,3.888L10.053,5.998C9.428,4.748 8.647,4.083 7.748,4.083C7.318,4.083 6.928,4.24 6.615,4.513C6.303,4.787 6.146,5.177 6.146,5.607C6.146,6.389 7.045,7.17 8.881,7.951C11.421,9.045 13.101,10.022 13.961,10.96C14.82,11.859 15.289,13.109 15.289,14.672C15.289,16.665 14.547,18.306 13.101,19.673C11.694,20.923 9.975,21.588 7.944,21.588C4.505,21.588 2.044,19.907 0.598,16.547L4.661,14.672C5.209,15.649 5.638,16.274 5.951,16.547C6.537,17.094 7.201,17.368 8.022,17.368C9.624,17.368 10.444,16.625 10.444,15.18C10.444,14.32 9.819,13.539 8.569,12.796C8.1,12.562 7.592,12.328 7.123,12.093C6.654,11.859 6.146,11.624 5.677,11.39C4.31,10.726 3.333,10.022 2.747,9.358C2.044,8.498 1.653,7.404 1.653,6.037C1.653,4.24 2.278,2.755 3.489,1.583C4.74,0.411 6.263,-0.176 8.061,-0.176C10.679,-0.176 12.671,1.192 13.922,3.888L14,3.888Z" fill="#1D1D1E"/>
</svg>
