<svg width="728" height="728" viewBox="0 0 728 728" fill="none" xmlns="http://www.w3.org/2000/svg" xmlns:xlink="http://www.w3.org/1999/xlink">
<rect  x="0.979" y="725.982" width="726.034" height="0.997" fill="#E0C150"/>
<rect  x="0.979" y="722.274" width="726.034" height="3.708" fill="#E0C150"/>
<rect  x="0.979" y="718.606" width="726.034" height="3.708" fill="#E0C151"/>
<rect  x="0.979" y="714.887" width="726.034" height="3.709" fill="#E0C252"/>
<rect  x="0.979" y="711.18" width="726.034" height="3.708" fill="#E1C253"/>
<rect  x="0.979" y="707.473" width="726.034" height="3.709" fill="#E1C254"/>
<rect  x="0.979" y="703.766" width="726.034" height="3.708" fill="#E2C354"/>
<rect  x="0.979" y="700.058" width="726.034" height="3.709" fill="#E2C355"/>
<rect  x="0.979" y="696.351" width="726.034" height="3.708" fill="#E2C356"/>
<rect  x="0.979" y="692.636" width="726.034" height="3.709" fill="#E3C457"/>
<rect  x="0.979" y="688.929" width="726.034" height="3.708" fill="#E3C458"/>
<rect  x="0.979" y="685.222" width="726.034" height="3.709" fill="#E4C559"/>
<rect  x="0.979" y="681.515" width="726.034" height="3.708" fill="#E4C55A"/>
<rect  x="0.979" y="677.846" width="726.034" height="3.708" fill="#E4C55B"/>
<rect  x="0.979" y="674.139" width="726.034" height="3.709" fill="#E5C65C"/>
<rect  x="0.979" y="670.432" width="726.034" height="3.708" fill="#E5C65C"/>
<rect  x="0.979" y="666.717" width="726.034" height="3.709" fill="#E5C75D"/>
<rect  x="0.979" y="663.01" width="726.034" height="3.708" fill="#E5C75E"/>
<rect  x="0.979" y="659.303" width="726.034" height="3.709" fill="#E5C75F"/>
<rect  x="0.979" y="655.595" width="726.034" height="3.708" fill="#E6C860"/>
<rect  x="0.979" y="651.888" width="726.034" height="3.709" fill="#E6C861"/>
<rect  x="0.979" y="648.181" width="726.034" height="3.708" fill="#E7C863"/>
<rect  x="0.979" y="644.466" width="726.034" height="3.709" fill="#E7C864"/>
<rect  x="0.979" y="640.759" width="726.034" height="3.708" fill="#E7C965"/>
<rect  x="0.979" y="637.091" width="726.034" height="3.708" fill="#E8C965"/>
<rect  x="0.979" y="633.384" width="726.034" height="3.709" fill="#E8C966"/>
<rect  x="0.979" y="629.676" width="726.034" height="3.708" fill="#E9CA67"/>
<rect  x="0.979" y="625.969" width="726.034" height="3.709" fill="#E9CA68"/>
<rect  x="0.979" y="622.262" width="726.034" height="3.708" fill="#E9CA69"/>
<rect  x="0.979" y="618.547" width="726.034" height="3.709" fill="#EACB6A"/>
<rect  x="0.979" y="614.84" width="726.034" height="3.708" fill="#EACB6B"/>
<rect  x="0.979" y="611.132" width="726.034" height="3.709" fill="#EBCC6B"/>
<rect  x="0.979" y="607.425" width="726.034" height="3.708" fill="#EBCC6C"/>
<rect  x="0.979" y="603.718" width="726.034" height="3.709" fill="#ECCD6D"/>
<rect  x="0.979" y="600.05" width="726.034" height="3.709" fill="#ECCD6E"/>
<rect  x="0.979" y="596.343" width="726.034" height="3.708" fill="#EBCD6F"/>
<rect  x="0.979" y="592.628" width="726.034" height="3.709" fill="#ECCE70"/>
<rect  x="0.979" y="588.92" width="726.034" height="3.708" fill="#ECCE70"/>
<rect  x="0.979" y="585.213" width="726.034" height="3.709" fill="#EDCE71"/>
<rect  x="0.979" y="581.506" width="726.034" height="3.708" fill="#EDCF72"/>
<rect  x="0.979" y="577.799" width="726.034" height="3.709" fill="#EDCF73"/>
<rect  x="0.979" y="574.092" width="726.034" height="3.708" fill="#EECF74"/>
<rect  x="0.979" y="570.377" width="726.034" height="3.709" fill="#EED074"/>
<rect  x="0.979" y="566.669" width="726.034" height="3.708" fill="#EFD075"/>
<rect  x="0.979" y="562.962" width="726.034" height="3.709" fill="#EFD076"/>
<rect  x="0.979" y="559.294" width="726.034" height="3.709" fill="#EFD077"/>
<rect  x="0.979" y="555.587" width="726.034" height="3.708" fill="#F0D278"/>
<rect  x="0.979" y="551.88" width="726.034" height="3.709" fill="#F0D278"/>
<rect  x="0.979" y="548.172" width="726.034" height="3.708" fill="#F1D279"/>
<rect  x="0.979" y="544.454" width="726.034" height="3.709" fill="#F1D37A"/>
<rect  x="0.979" y="540.746" width="726.034" height="3.708" fill="#F1D37B"/>
<rect  x="0.979" y="537.039" width="726.034" height="3.709" fill="#F2D37B"/>
<rect  x="0.979" y="533.332" width="726.034" height="3.708" fill="#F2D47C"/>
<rect  x="0.979" y="529.625" width="726.034" height="3.708" fill="#F2D47D"/>
<rect  x="0.979" y="525.918" width="726.034" height="3.709" fill="#F2D47E"/>
<rect  x="0.979" y="522.21" width="726.034" height="3.708" fill="#F3D57F"/>
<rect  x="0.979" y="518.534" width="726.034" height="3.709" fill="#F3D57F"/>
<rect  x="0.979" y="514.827" width="726.034" height="3.708" fill="#F3D580"/>
<rect  x="0.979" y="511.12" width="726.034" height="3.709" fill="#F4D681"/>
<rect  x="0.979" y="507.413" width="726.034" height="3.709" fill="#F4D682"/>
<rect  x="0.979" y="503.706" width="726.034" height="3.709" fill="#F4D682"/>
<rect  x="0.979" y="499.998" width="726.034" height="3.709" fill="#F5D783"/>
<rect  x="0.979" y="496.291" width="726.034" height="3.709" fill="#F5D884"/>
<rect  x="0.979" y="492.576" width="726.034" height="3.709" fill="#F6D885"/>
<rect  x="0.979" y="488.869" width="726.034" height="3.709" fill="#F6D885"/>
<rect  x="0.979" y="485.162" width="726.034" height="3.709" fill="#F6D986"/>
<rect  x="0.979" y="481.455" width="726.034" height="3.709" fill="#F7D987"/>
<rect  x="0.979" y="476.469" width="726.034" height="4.985" fill="#F7D987"/>
<rect  x="0.979" y="471.487" width="726.034" height="4.985" fill="#F6D886"/>
<rect  x="0.979" y="466.501" width="726.034" height="4.985" fill="#F5D785"/>
<rect  x="0.979" y="461.476" width="726.034" height="4.985" fill="#F5D684"/>
<rect  x="0.979" y="456.494" width="726.034" height="4.985" fill="#F4D583"/>
<rect  x="0.979" y="451.509" width="726.034" height="4.985" fill="#F1D382"/>
<rect  x="0.979" y="446.523" width="726.034" height="4.985" fill="#F1D281"/>
<rect  x="0.979" y="441.502" width="726.034" height="4.985" fill="#F0D180"/>
<rect  x="0.979" y="436.516" width="726.034" height="4.985" fill="#EFD080"/>
<rect  x="0.979" y="431.53" width="726.034" height="4.985" fill="#EDCE7E"/>
<rect  x="0.979" y="426.548" width="726.034" height="4.985" fill="#EDCD7E"/>
<rect  x="0.979" y="421.523" width="726.034" height="4.985" fill="#ECCC7D"/>
<rect  x="0.979" y="416.538" width="726.034" height="4.985" fill="#EBCB7C"/>
<rect  x="0.979" y="411.556" width="726.034" height="4.985" fill="#EACA7A"/>
<rect  x="0.979" y="406.57" width="726.034" height="4.985" fill="#E9C97A"/>
<rect  x="0.979" y="401.537" width="726.034" height="4.985" fill="#E8C879"/>
<rect  x="0.979" y="396.555" width="726.034" height="4.985" fill="#E8C778"/>
<rect  x="0.979" y="391.57" width="726.034" height="4.985" fill="#E7C677"/>
<rect  x="0.979" y="386.584" width="726.034" height="4.985" fill="#E5C476"/>
<rect  x="0.979" y="381.559" width="726.034" height="4.985" fill="#E4C375"/>
<rect  x="0.979" y="376.577" width="726.034" height="4.985" fill="#E4C374"/>
<rect  x="0.979" y="371.591" width="726.034" height="4.985" fill="#E3C273"/>
<rect  x="0.979" y="366.605" width="726.034" height="4.985" fill="#E2C072"/>
<rect  x="0.979" y="361.585" width="726.034" height="4.985" fill="#E2BF70"/>
<rect  x="0.979" y="356.599" width="726.034" height="4.985" fill="#E1BE6F"/>
<rect  x="0.979" y="351.613" width="726.034" height="4.985" fill="#E0BD6F"/>
<rect  x="0.979" y="346.631" width="726.034" height="4.985" fill="#DFBC6D"/>
<rect  x="0.979" y="341.606" width="726.034" height="4.985" fill="#DEBB6C"/>
<rect  x="0.979" y="336.62" width="726.034" height="4.985" fill="#DDBA6C"/>
<rect  x="0.979" y="331.639" width="726.034" height="4.985" fill="#DCB96B"/>
<rect  x="0.979" y="326.653" width="726.034" height="4.985" fill="#DCB86A"/>
<rect  x="0.979" y="321.628" width="726.034" height="4.985" fill="#DAB669"/>
<rect  x="0.979" y="316.646" width="726.034" height="4.985" fill="#D9B568"/>
<rect  x="0.979" y="311.66" width="726.034" height="4.985" fill="#D9B567"/>
<rect  x="0.979" y="306.674" width="726.034" height="4.985" fill="#D9B466"/>
<rect  x="0.979" y="301.654" width="726.034" height="4.985" fill="#D7B365"/>
<rect  x="0.979" y="296.668" width="726.034" height="4.985" fill="#D7B264"/>
<rect  x="0.979" y="291.682" width="726.034" height="4.985" fill="#D6B163"/>
<rect  x="0.979" y="286.7" width="726.034" height="4.985" fill="#D5B063"/>
<rect  x="0.979" y="281.675" width="726.034" height="4.985" fill="#D4AF61"/>
<rect  x="0.979" y="276.689" width="726.034" height="4.985" fill="#D4AE61"/>
<rect  x="0.979" y="271.708" width="726.034" height="4.985" fill="#D3AD60"/>
<rect  x="0.979" y="266.722" width="726.034" height="4.985" fill="#D2AC5F"/>
<rect  x="0.979" y="261.697" width="726.034" height="4.985" fill="#D1AB5E"/>
<rect  x="0.979" y="256.711" width="726.034" height="4.985" fill="#D0AA5D"/>
<rect  x="0.979" y="251.729" width="726.034" height="4.985" fill="#CFA95C"/>
<rect  x="0.979" y="246.743" width="726.034" height="4.985" fill="#CFA95B"/>
<rect  x="0.979" y="241.711" width="726.034" height="4.985" fill="#CFA85A"/>
<rect  x="0.979" y="236.729" width="726.034" height="4.985" fill="#CDA659"/>
<rect  x="0.979" y="231.743" width="726.034" height="4.985" fill="#CCA558"/>
<rect  x="0.979" y="226.757" width="726.034" height="4.985" fill="#CCA558"/>
<rect  x="0.979" y="221.736" width="726.034" height="4.985" fill="#CCA457"/>
<rect  x="0.979" y="216.75" width="726.034" height="4.985" fill="#CAA356"/>
<rect  x="0.979" y="211.765" width="726.034" height="4.985" fill="#CAA255"/>
<rect  x="0.979" y="206.783" width="726.034" height="4.985" fill="#C9A154"/>
<rect  x="0.979" y="201.758" width="726.034" height="4.985" fill="#C8A153"/>
<rect  x="0.979" y="196.772" width="726.034" height="4.985" fill="#C89F52"/>
<rect  x="0.979" y="191.79" width="726.034" height="4.985" fill="#C79F51"/>
<rect  x="0.979" y="186.804" width="726.034" height="4.985" fill="#C69E51"/>
<rect  x="0.979" y="181.78" width="726.034" height="4.985" fill="#C59D50"/>
<rect  x="0.979" y="176.798" width="726.034" height="4.985" fill="#C59C4F"/>
<rect  x="0.979" y="171.812" width="726.034" height="4.985" fill="#C49B4E"/>
<rect  x="0.979" y="166.826" width="726.034" height="4.985" fill="#C39A4D"/>
<rect  x="0.979" y="161.805" width="726.034" height="4.985" fill="#C3994C"/>
<rect  x="0.979" y="156.819" width="726.034" height="4.985" fill="#C2984C"/>
<rect  x="0.979" y="151.834" width="726.034" height="4.985" fill="#C1974B"/>
<rect  x="0.979" y="146.848" width="726.034" height="4.985" fill="#C1964A"/>
<rect  x="0.979" y="141.827" width="726.034" height="4.985" fill="#C09649"/>
<rect  x="0.979" y="136.841" width="726.034" height="4.985" fill="#BF9548"/>
<rect  x="0.979" y="131.855" width="726.034" height="4.985" fill="#BF9447"/>
<rect  x="0.979" y="126.873" width="726.034" height="4.985" fill="#BE9347"/>
<rect  x="0.979" y="121.849" width="726.034" height="4.985" fill="#BD9246"/>
<rect  x="0.979" y="116.863" width="726.034" height="4.985" fill="#BC9245"/>
<rect  x="0.979" y="111.881" width="726.034" height="4.985" fill="#BC9144"/>
<rect  x="0.979" y="106.895" width="726.034" height="4.985" fill="#BB9044"/>
<rect  x="0.979" y="101.87" width="726.034" height="4.985" fill="#BA8F43"/>
<rect  x="0.979" y="96.888" width="726.034" height="4.985" fill="#BA8F42"/>
<rect  x="0.979" y="91.903" width="726.034" height="4.985" fill="#BA8E42"/>
<rect  x="0.979" y="86.917" width="726.034" height="4.985" fill="#B88D41"/>
<rect  x="0.979" y="81.888" width="726.034" height="4.985" fill="#B88C40"/>
<rect  x="0.979" y="76.902" width="726.034" height="4.985" fill="#B78B3F"/>
<rect  x="0.979" y="71.917" width="726.034" height="4.985" fill="#B78A3F"/>
<rect  x="0.979" y="66.935" width="726.034" height="4.985" fill="#B5893E"/>
<rect  x="0.979" y="61.91" width="726.034" height="4.985" fill="#B5893D"/>
<rect  x="0.979" y="56.924" width="726.034" height="4.985" fill="#B5883D"/>
<rect  x="0.979" y="51.942" width="726.034" height="4.985" fill="#B4873C"/>
<rect  x="0.979" y="46.956" width="726.034" height="4.985" fill="#B3863B"/>
<rect  x="0.979" y="41.931" width="726.034" height="4.985" fill="#B2853B"/>
<rect  x="0.979" y="36.949" width="726.034" height="4.985" fill="#B2853A"/>
<rect  x="0.979" y="31.964" width="726.034" height="4.985" fill="#B28439"/>
<rect  x="0.979" y="26.978" width="726.034" height="4.985" fill="#B18339"/>
<rect  x="0.979" y="21.953" width="726.034" height="4.985" fill="#B08338"/>
<rect  x="0.979" y="16.971" width="726.034" height="4.985" fill="#AF8238"/>
<rect  x="0.979" y="11.985" width="726.034" height="4.985" fill="#AF8137"/>
<rect  x="0.979" y="7" width="726.034" height="4.985" fill="#AE8136"/>
<rect  x="0.979" y="1.979" width="726.034" height="4.985" fill="#AD8036"/>
<rect  x="0.979" y="0.981" width="726.034" height="0.997" fill="#AD8036"/>
<path d="M363.976,665.718C197.611,665.718 62.27,530.378 62.27,364.012C62.27,197.648 197.611,62.266 363.976,62.266C530.342,62.266 665.684,197.608 665.684,363.972C665.684,530.338 530.342,665.68 363.976,665.68L363.976,665.718ZM363.976,64.26C198.728,64.26 64.264,198.724 64.264,363.972C64.264,529.222 198.728,663.686 363.976,663.686C529.226,663.686 663.69,529.222 663.69,363.972C663.69,198.724 529.266,64.26 363.976,64.26Z" fill="#FFFFFF"/>
<path d="M130.02,382.748C130.18,384.702 130.02,386.536 129.462,388.291C128.943,390.045 128.066,391.601 126.989,392.956C125.873,394.312 124.517,395.429 122.922,396.266C121.327,397.104 119.612,397.622 117.698,397.782C115.784,397.941 113.95,397.782 112.235,397.183C110.52,396.625 109.005,395.748 107.649,394.591C106.293,393.435 105.217,392.039 104.379,390.404C103.542,388.809 103.024,387.015 102.864,385.061C102.744,383.625 102.864,382.23 103.103,380.834C103.382,379.438 103.821,378.162 104.459,376.926C105.097,375.69 105.895,374.653 106.852,373.736L110.839,377.086C109.723,378.122 108.925,379.279 108.447,380.595C107.968,381.871 107.769,383.227 107.888,384.662C108.008,385.819 108.287,386.895 108.846,387.892C109.404,388.889 110.042,389.687 110.879,390.364C111.717,391.042 112.674,391.561 113.75,391.88C114.827,392.199 115.983,392.318 117.22,392.199C118.416,392.079 119.532,391.76 120.529,391.282C121.526,390.763 122.404,390.085 123.082,389.248C123.799,388.411 124.278,387.453 124.637,386.377C124.956,385.3 125.075,384.144 124.996,382.947C124.876,381.552 124.477,380.316 123.799,379.159C123.121,378.003 122.204,377.046 121.048,376.208L124.278,372.34C125.355,373.058 126.312,373.975 127.149,375.052C127.986,376.128 128.624,377.325 129.143,378.601C129.661,379.877 129.98,381.233 130.1,382.628L130.02,382.748Z" fill="#FFFFFF"/>
<path d="M128.943,354.44L102.544,352.247L104.219,332.189L108.964,332.588L107.728,347.262L113.75,347.781L114.547,338.13L119.133,338.529L118.335,348.179L124.596,348.698L125.832,333.864L130.577,334.262L128.903,354.48L128.943,354.44Z" fill="#FFFFFF"/>
<path d="M133.648,316.117L108.008,309.578L111.158,297.176C111.596,295.461 112.314,294.026 113.311,292.869C114.308,291.713 115.504,290.915 116.9,290.477C118.296,290.038 119.771,290.038 121.326,290.437C122.961,290.836 124.277,291.673 125.314,292.869C126.351,294.066 126.949,295.501 127.188,297.176L139.191,294.265L137.716,300.127L126.63,302.599L125.155,308.341L134.964,310.854L133.608,316.117L133.648,316.117ZM120.808,307.265L122.523,300.605C122.842,299.409 122.762,298.372 122.283,297.495C121.845,296.618 121.087,296.059 120.05,295.78C119.014,295.541 118.096,295.661 117.299,296.219C116.501,296.777 115.903,297.655 115.624,298.811L113.909,305.47L120.808,307.225L120.808,307.265Z" fill="#FFFFFF"/>
<path d="M147.804,271.778L127.985,263.085L124.436,271.18L120.01,269.226L129.301,248.132L133.728,250.086L130.179,258.141L149.997,266.834L147.804,271.818L147.804,271.778Z" fill="#FFFFFF"/>
<path d="M162.198,243.462L139.628,229.664L142.459,225.039L165.029,238.876L162.198,243.501L162.198,243.462Z" fill="#FFFFFF"/>
<path d="M175.839,222.769L155.303,206.021L168.103,190.309L171.812,193.34L162.441,204.825L167.266,208.772L173.486,201.156L177.075,204.067L170.854,211.683L179.268,218.542L175.839,222.769Z" fill="#FFFFFF"/>
<path d="M201.358,194.253L183.294,174.913L187.241,171.204L205.306,190.545L201.358,194.253Z" fill="#FFFFFF"/>
<path d="M230.748,170.808C229.153,171.924 227.478,172.682 225.684,173.081C223.889,173.479 222.135,173.559 220.38,173.24C218.625,172.961 216.99,172.323 215.475,171.406C213.96,170.449 212.644,169.213 211.527,167.618C210.411,166.022 209.653,164.348 209.294,162.593C208.935,160.838 208.896,159.084 209.254,157.329C209.573,155.575 210.251,153.94 211.208,152.424C212.205,150.909 213.481,149.553 215.076,148.437C216.273,147.599 217.509,146.961 218.865,146.523C220.181,146.084 221.536,145.805 222.932,145.765C224.328,145.685 225.644,145.845 226.88,146.244L225.963,151.348C224.527,150.909 223.092,150.829 221.736,151.029C220.38,151.268 219.104,151.747 217.948,152.584C216.99,153.262 216.193,154.059 215.635,155.016C215.037,155.973 214.678,156.97 214.478,158.047C214.319,159.084 214.359,160.161 214.598,161.277C214.837,162.394 215.316,163.43 216.033,164.427C216.751,165.424 217.549,166.222 218.506,166.82C219.463,167.418 220.46,167.817 221.536,168.016C222.613,168.216 223.69,168.176 224.806,167.937C225.883,167.697 226.96,167.219 227.957,166.501C229.073,165.703 229.95,164.746 230.628,163.59C231.266,162.433 231.665,161.157 231.785,159.722L236.729,160.599C236.65,161.915 236.331,163.191 235.812,164.427C235.294,165.663 234.616,166.86 233.739,167.937C232.861,169.013 231.865,169.97 230.708,170.768L230.748,170.808Z" fill="#FFFFFF"/>
<path d="M252.36,156.732L250.965,128.18L256.627,125.548L277.483,145.048L272.139,147.52L266.796,142.337L256.986,146.882L257.465,154.339L252.32,156.732L252.36,156.732ZM256.667,142.217L263.446,139.067L255.949,131.809L256.667,142.217Z" fill="#FFFFFF"/>
<path d="M295.55,139.104L289.448,118.368L280.955,120.84L279.599,116.175L301.731,109.675L303.086,114.301L294.632,116.773L300.734,137.509L295.51,139.024L295.55,139.104Z" fill="#FFFFFF"/>
<path d="M326.331,131.727L323.181,105.448L343.159,103.056L343.717,107.801L329.123,109.556L329.84,115.537L339.451,114.381L340.009,118.967L330.399,120.123L331.156,126.344L345.911,124.549L346.469,129.295L326.331,131.727Z" fill="#FFFFFF"/>
<path d="M399.425,132.046C397.511,131.767 395.757,131.129 394.201,130.172C392.646,129.215 391.33,128.058 390.293,126.623C389.257,125.187 388.499,123.632 388.02,121.877C387.582,120.123 387.502,118.328 387.781,116.414C388.06,114.5 388.698,112.825 389.655,111.27C390.612,109.755 391.809,108.479 393.244,107.442C394.68,106.405 396.275,105.647 398.03,105.249C399.784,104.81 401.618,104.77 403.532,105.049C405.447,105.328 407.201,105.966 408.756,106.924C410.312,107.881 411.627,109.037 412.664,110.473C413.701,111.908 414.459,113.463 414.897,115.218C415.336,116.972 415.416,118.767 415.137,120.681C414.857,122.595 414.219,124.27 413.302,125.825C412.345,127.34 411.189,128.616 409.753,129.693C408.318,130.73 406.723,131.488 404.928,131.886C403.134,132.285 401.299,132.365 399.385,132.086L399.425,132.046ZM400.183,127.061C401.379,127.261 402.496,127.181 403.532,126.902C404.569,126.623 405.526,126.144 406.404,125.506C407.241,124.868 407.999,124.031 408.557,123.074C409.155,122.117 409.514,121 409.713,119.804C409.913,118.607 409.873,117.411 409.594,116.334C409.315,115.218 408.876,114.261 408.278,113.384C407.64,112.506 406.882,111.788 405.965,111.19C405.048,110.592 404.011,110.233 402.815,110.034C401.658,109.835 400.542,109.914 399.505,110.193C398.468,110.473 397.511,110.951 396.634,111.589C395.796,112.227 395.079,113.025 394.481,114.022C393.882,114.979 393.523,116.055 393.324,117.252C393.125,118.488 393.165,119.644 393.444,120.761C393.683,121.877 394.162,122.874 394.76,123.751C395.398,124.629 396.155,125.347 397.073,125.945C397.99,126.543 399.026,126.902 400.183,127.101L400.183,127.061Z" fill="#FFFFFF"/>
<path d="M430.651,138.387L439.184,113.304L458.365,119.804L456.85,124.31L442.813,119.525L440.819,125.427L450.15,128.617L448.675,132.963L439.344,129.813L435.835,140.101L430.691,138.347L430.651,138.387Z" fill="#FFFFFF"/>
<path d="M486.157,163.069L500.154,140.619L504.78,143.49L490.783,165.94L486.197,163.069L486.157,163.069Z" fill="#FFFFFF"/>
<path d="M506.736,176.75L523.803,156.492L527.751,159.802L526.714,181.256L537.72,168.176L541.628,171.446L524.561,191.703L520.892,188.633L522.088,166.501L510.684,180.02L506.776,176.71L506.736,176.75Z" fill="#FFFFFF"/>
<path d="M542.422,210.766L559.011,196.889L553.348,190.11L557.057,187L571.891,204.665L568.183,207.776L562.52,201.036L545.931,214.913L542.462,210.766L542.422,210.766Z" fill="#FFFFFF"/>
<path d="M561.443,235.966L584.253,222.528L594.501,239.874L590.394,242.307L582.897,229.626L577.673,232.697L582.618,241.031L578.63,243.383L573.685,235.049L568.262,238.239L575.799,251.04L571.692,253.472L561.364,236.006L561.443,235.966Z" fill="#FFFFFF"/>
<path d="M579.748,269.895L604.432,260.364L609.058,272.287C609.696,273.962 609.935,275.517 609.776,277.033C609.616,278.548 609.098,279.904 608.22,281.06C607.343,282.217 606.147,283.094 604.631,283.652C603.036,284.25 601.521,284.37 599.966,283.971C598.411,283.572 597.095,282.775 595.938,281.539L587.843,290.87L585.65,285.207L593.267,276.753L591.113,271.25L581.662,274.879L579.709,269.815L579.748,269.895ZM595.34,269.695L597.813,276.115C598.251,277.272 598.929,278.069 599.806,278.508C600.684,278.947 601.601,278.986 602.598,278.628C603.595,278.229 604.233,277.591 604.592,276.674C604.95,275.756 604.871,274.72 604.432,273.563L601.96,267.143L595.34,269.695Z" fill="#FFFFFF"/>
<path d="M592.626,307.58L618.586,302.516L619.583,307.58L605.307,323.65L622.095,320.38L623.052,325.365L597.092,330.429L596.175,325.724L610.969,309.215L593.583,312.604L592.586,307.58L592.626,307.58Z" fill="#FFFFFF"/>
<path d="M598.77,358.705C598.73,356.592 599.089,354.518 599.846,352.484C600.604,350.451 601.681,348.616 603.116,347.021L607.104,350.052C605.788,351.607 604.831,353.083 604.233,354.518C603.675,355.954 603.396,357.429 603.435,359.024C603.435,360.141 603.635,361.058 603.914,361.855C604.193,362.653 604.592,363.251 605.11,363.69C605.629,364.128 606.227,364.328 606.905,364.328C607.822,364.328 608.5,363.969 608.978,363.291C609.457,362.613 609.816,361.497 610.055,359.941L610.852,354.718C611.171,352.484 611.929,350.77 613.125,349.573C614.322,348.377 615.877,347.779 617.791,347.739C619.426,347.739 620.861,348.098 622.098,348.896C623.334,349.693 624.291,350.889 624.969,352.405C625.647,353.92 626.006,355.754 626.045,357.868C626.045,359.782 625.806,361.696 625.168,363.65C624.57,365.564 623.693,367.279 622.536,368.794L618.389,365.963C620.463,363.171 621.46,360.38 621.38,357.629C621.38,356.672 621.22,355.794 620.941,355.076C620.662,354.359 620.303,353.8 619.864,353.442C619.426,353.083 618.907,352.883 618.27,352.883C617.472,352.883 616.834,353.202 616.435,353.8C615.997,354.399 615.678,355.356 615.478,356.711L614.76,361.656C614.401,364.288 613.604,366.242 612.368,367.598C611.132,368.914 609.497,369.592 607.463,369.671C605.748,369.671 604.233,369.273 602.957,368.435C601.681,367.558 600.644,366.322 599.926,364.647C599.208,363.012 598.81,361.058 598.77,358.825L598.77,358.705Z" fill="#FFFFFF"/>
<path d="M598.292,387.255L624.491,391.163L623.694,396.546L613.166,394.951L611.372,406.874L621.899,408.469L621.102,413.853L594.943,409.945L595.74,404.561L606.467,406.156L608.262,394.233L597.535,392.638L598.332,387.255L598.292,387.255Z" fill="#FFFFFF"/>
<path d="M590.115,428.689L615.476,436.265L613.921,441.489L588.559,433.913L590.115,428.729L590.115,428.689Z" fill="#FFFFFF"/>
<path d="M582.301,452.055L606.387,463.021L600.963,474.984C600.246,476.539 599.289,477.775 598.092,478.692C596.896,479.609 595.58,480.128 594.144,480.287C592.709,480.447 591.233,480.207 589.718,479.53C588.283,478.892 587.166,477.974 586.369,476.778C585.571,475.582 585.093,474.226 585.013,472.751C584.933,471.275 585.212,469.72 585.93,468.205L589.12,461.186L580.028,457.039L582.301,452.095L582.301,452.055ZM593.267,462.981L590.316,469.441C589.838,470.518 589.718,471.514 590.037,472.432C590.356,473.349 590.994,474.027 591.951,474.505C592.948,474.984 593.905,474.984 594.822,474.625C595.74,474.266 596.417,473.548 596.896,472.471L599.847,466.012L593.267,463.021L593.267,462.981Z" fill="#FFFFFF"/>
<path d="M545.533,512.984C546.888,511.349 548.484,509.993 550.398,508.917C552.312,507.84 554.305,507.202 556.419,506.883L557.496,511.788C555.462,512.107 553.787,512.625 552.431,513.303C551.075,514.021 549.879,514.978 548.882,516.174C548.204,517.012 547.686,517.849 547.407,518.647C547.088,519.444 547.008,520.162 547.128,520.8C547.247,521.438 547.566,521.996 548.085,522.435C548.803,522.993 549.52,523.193 550.318,523.033C551.115,522.834 552.112,522.236 553.309,521.199L557.296,517.769C559.011,516.294 560.686,515.496 562.361,515.377C564.035,515.257 565.591,515.776 567.106,517.012C568.382,518.049 569.219,519.285 569.618,520.68C570.017,522.076 569.977,523.591 569.499,525.186C569.02,526.782 568.103,528.416 566.747,530.051C565.511,531.527 564.075,532.803 562.361,533.879C560.646,534.956 558.851,535.674 557.057,536.073L555.741,531.208C559.131,530.41 561.683,528.975 563.437,526.821C564.035,526.064 564.514,525.346 564.753,524.628C565.032,523.91 565.112,523.272 564.992,522.674C564.913,522.116 564.634,521.598 564.155,521.239C563.517,520.72 562.879,520.561 562.161,520.72C561.443,520.88 560.606,521.398 559.569,522.315L555.781,525.625C553.787,527.38 551.913,528.376 550.119,528.576C548.324,528.775 546.649,528.257 545.054,526.941C543.738,525.864 542.861,524.548 542.422,523.073C541.984,521.597 542.063,519.963 542.582,518.248C543.1,516.533 544.057,514.779 545.493,513.064L545.533,512.984Z" fill="#FFFFFF"/>
<path d="M526.395,534.439L543.781,554.418L533.852,563.031C532.536,564.147 531.18,564.905 529.745,565.224C528.309,565.543 526.874,565.503 525.478,565.025C524.082,564.586 522.846,563.749 521.769,562.513C520.733,561.316 520.095,560.04 519.855,558.605C519.616,557.169 519.736,555.773 520.294,554.378C520.812,552.982 521.73,551.706 523.006,550.589L528.828,545.525L522.288,537.988L526.395,534.439ZM531.858,548.955L526.515,553.62C525.637,554.378 525.119,555.255 525.039,556.212C524.96,557.169 525.239,558.046 525.956,558.884C526.674,559.721 527.551,560.16 528.509,560.2C529.466,560.2 530.423,559.841 531.3,559.083L536.683,554.418L531.938,548.955L531.858,548.955Z" fill="#FFFFFF"/>
<path d="M495.328,559.326L509.086,581.936L498.16,588.595C496.644,589.512 495.129,590.031 493.614,590.15C492.098,590.27 490.703,589.991 489.387,589.353C488.111,588.675 487.034,587.678 486.197,586.282C485.319,584.847 484.96,583.331 485.08,581.736C485.2,580.141 485.758,578.706 486.755,577.35L476.108,571.049L481.292,567.899L490.942,573.881L496.006,570.81L490.742,562.157L495.368,559.326L495.328,559.326ZM498.319,574.678L492.457,578.267C491.42,578.905 490.742,579.703 490.463,580.62C490.184,581.577 490.304,582.494 490.862,583.371C491.42,584.288 492.178,584.807 493.135,585.006C494.092,585.206 495.089,584.966 496.166,584.328L502.067,580.739L498.359,574.678L498.319,574.678Z" fill="#FFFFFF"/>
<path d="M460.477,578.42L471.084,602.665L466.099,604.818L455.492,580.573L460.477,578.38L460.477,578.42Z" fill="#FFFFFF"/>
<path d="M437.47,587.712L444.488,613.233L439.503,614.589L422.396,601.589L426.942,618.059L422.037,619.414L415.019,593.893L419.645,592.617L437.23,606.135L432.525,589.068L437.47,587.712Z" fill="#FFFFFF"/>
<path d="M389.137,597.844L391.21,619.377L400.023,618.54L400.502,623.365L377.533,625.558L377.054,620.733L385.827,619.896L383.754,598.362L389.177,597.844L389.137,597.844Z" fill="#FFFFFF"/>
<path d="M335.343,597.603L330.957,623.683L317.997,621.489C316.282,621.21 314.847,620.612 313.69,619.695C312.494,618.778 311.656,617.661 311.138,616.305C310.62,614.95 310.46,613.474 310.739,611.839C311.018,610.284 311.617,608.968 312.534,607.891C313.491,606.815 314.647,606.017 316.083,605.539C317.518,605.06 319.034,604.98 320.708,605.26L328.325,606.536L330,596.686L335.343,597.603ZM327.567,611.002L320.549,609.806C319.393,609.606 318.396,609.806 317.598,610.324C316.801,610.842 316.282,611.64 316.123,612.717C315.923,613.793 316.123,614.75 316.721,615.508C317.319,616.266 318.196,616.744 319.353,616.944L326.371,618.14L327.567,611.002Z" fill="#FFFFFF"/>
<path d="M296.345,589.392L287.612,614.395L275.529,610.168C273.854,609.57 272.499,608.733 271.422,607.616C270.345,606.499 269.667,605.263 269.388,603.828C269.069,602.392 269.189,600.917 269.707,599.401C270.265,597.806 271.183,596.57 272.499,595.653C273.775,594.736 275.29,594.257 276.925,594.177L275.051,581.935L280.793,583.929L282.308,595.174L287.891,597.128L291.241,587.558L296.345,589.352L296.345,589.392ZM286.376,601.435L279.876,599.162C278.719,598.763 277.683,598.723 276.765,599.122C275.848,599.481 275.21,600.199 274.891,601.196C274.532,602.193 274.612,603.11 275.091,603.987C275.569,604.864 276.406,605.463 277.523,605.901L284.023,608.174L286.376,601.475L286.376,601.435Z" fill="#FFFFFF"/>
<path d="M248.375,568.218C250.09,569.175 251.485,570.371 252.602,571.806C253.718,573.242 254.516,574.797 254.994,576.512C255.473,578.227 255.632,579.981 255.433,581.736C255.234,583.53 254.675,585.245 253.718,586.92C252.761,588.594 251.605,589.95 250.169,591.067C248.734,592.143 247.178,592.941 245.464,593.38C243.749,593.818 241.995,593.978 240.2,593.738C238.406,593.499 236.651,592.941 234.936,591.984C233.262,591.027 231.826,589.831 230.709,588.395C229.593,586.959 228.795,585.404 228.277,583.69C227.798,581.975 227.679,580.22 227.878,578.466C228.078,576.671 228.636,574.957 229.593,573.282C230.55,571.607 231.706,570.211 233.142,569.135C234.577,568.058 236.133,567.26 237.847,566.782C239.562,566.303 241.317,566.184 243.111,566.423C244.906,566.662 246.66,567.221 248.375,568.178L248.375,568.218ZM245.902,572.604C244.866,572.006 243.789,571.687 242.712,571.567C241.636,571.448 240.559,571.567 239.522,571.846C238.485,572.165 237.528,572.644 236.651,573.362C235.774,574.079 235.016,574.957 234.418,575.993C233.82,577.07 233.421,578.147 233.301,579.303C233.142,580.42 233.222,581.496 233.501,582.533C233.78,583.57 234.258,584.527 234.896,585.404C235.534,586.282 236.412,586.999 237.449,587.598C238.485,588.156 239.522,588.515 240.599,588.634C241.675,588.754 242.752,588.634 243.789,588.355C244.826,588.036 245.783,587.558 246.66,586.84C247.537,586.122 248.295,585.245 248.893,584.208C249.491,583.131 249.89,582.015 250.05,580.898C250.209,579.782 250.129,578.665 249.85,577.628C249.571,576.592 249.133,575.635 248.455,574.757C247.817,573.88 246.979,573.162 245.942,572.564L245.902,572.604Z" fill="#FFFFFF"/>
<path d="M211.886,542.736C213.362,544.013 214.518,545.448 215.355,547.043C216.193,548.638 216.671,550.353 216.831,552.108C216.99,553.862 216.831,555.617 216.273,557.331C215.754,559.046 214.877,560.641 213.641,562.116C212.405,563.592 210.969,564.708 209.374,565.506C207.739,566.304 206.064,566.782 204.31,566.942C202.555,567.101 200.8,566.862 199.086,566.304C197.331,565.745 195.736,564.828 194.301,563.592C192.626,562.196 191.35,560.521 190.472,558.647C189.555,556.733 189.156,554.779 189.196,552.785L194.34,552.546C194.301,553.982 194.54,555.337 195.098,556.574C195.656,557.81 196.454,558.887 197.531,559.764C198.408,560.521 199.405,561.08 200.442,561.359C201.478,561.638 202.555,561.758 203.592,561.678C204.629,561.598 205.705,561.239 206.702,560.721C207.699,560.202 208.576,559.445 209.374,558.528C210.171,557.571 210.77,556.574 211.128,555.497C211.487,554.42 211.607,553.344 211.567,552.267C211.487,551.19 211.208,550.154 210.73,549.157C210.251,548.16 209.533,547.282 208.616,546.525C207.659,545.727 206.662,545.169 205.586,544.89C204.509,544.611 203.472,544.571 202.396,544.77C201.319,544.97 200.362,545.408 199.524,546.046L205.426,551.071L202.356,554.699L192.028,545.927L193.104,544.651C194.38,543.135 195.816,541.979 197.371,541.141C198.926,540.304 200.561,539.825 202.236,539.626C203.911,539.427 205.586,539.626 207.26,540.145C208.935,540.663 210.49,541.54 211.926,542.776L211.886,542.736Z" fill="#FFFFFF"/>
<path d="M189.156,521.521L168.7,538.349L160.565,528.46C159.448,527.104 158.691,525.668 158.372,524.153C158.053,522.677 158.132,521.242 158.571,519.846C159.049,518.49 159.887,517.294 161.163,516.257C162.479,515.181 163.914,514.582 165.47,514.503C167.065,514.383 168.58,514.742 170.055,515.539L174.801,504.135L178.669,508.8L174.083,519.208L177.831,523.754L185.647,517.334L189.077,521.521L189.156,521.521ZM174.402,526.625L170.016,521.322C169.218,520.365 168.381,519.846 167.384,519.687C166.427,519.527 165.509,519.806 164.712,520.444C163.914,521.122 163.476,521.96 163.436,522.917C163.396,523.874 163.755,524.871 164.552,525.828L168.939,531.131L174.442,526.625L174.402,526.625Z" fill="#FFFFFF"/>
<path d="M166.227,491.812L137.874,495.441L134.804,489.978L152.629,467.687L155.5,472.791L150.755,478.533L156.058,487.944L163.435,486.867L166.227,491.812ZM151.432,488.662L147.764,482.162L141.104,490.217L151.432,488.662Z" fill="#FFFFFF"/>
<path d="M145.771,452.496L120.689,460.99L118.456,454.41L129.701,443.005L113.87,440.772L111.637,434.193L136.719,425.699L138.354,430.564L119.931,436.785L139.511,439.775L125.673,454.011L144.176,447.751L145.771,452.496Z" fill="#FFFFFF"/>
</svg>
