<svg width="28" height="22" viewBox="0 0 28 22" fill="none" xmlns="http://www.w3.org/2000/svg" xmlns:xlink="http://www.w3.org/1999/xlink">
<path d="M-0.558,0.75L4.209,0.75L4.209,2.665C5.107,1.688 5.889,1.063 6.553,0.711C7.256,0.36 8.116,0.164 9.171,0.164C11.515,0.164 13.351,1.18 14.68,3.212C16.165,1.18 18.196,0.164 20.736,0.164C25.386,0.164 27.691,2.977 27.691,8.604L27.691,21.341L22.924,21.341L22.924,9.893C22.924,7.901 22.69,6.533 22.221,5.713C21.713,4.892 20.931,4.462 19.798,4.462C18.47,4.462 17.532,4.97 16.946,5.947C16.36,6.924 16.047,8.526 16.047,10.714L16.047,21.341L11.281,21.341L11.281,9.971C11.281,6.299 10.226,4.462 8.116,4.462C6.787,4.462 5.81,4.97 5.185,5.947C4.56,6.963 4.248,8.526 4.248,10.675L4.248,21.302L-0.519,21.302L-0.519,0.711L-0.558,0.75Z" fill="#1D1D1E"/>
</svg>
