<svg width="24" height="24" viewBox="0 0 24 24" fill="none" xmlns="http://www.w3.org/2000/svg" xmlns:xlink="http://www.w3.org/1999/xlink">
<path d="M0.592,10.908C0.592,7.939 1.647,5.399 3.796,3.328C5.906,1.257 8.524,0.202 11.571,0.202C14.619,0.202 17.237,1.257 19.386,3.367C21.495,5.477 22.55,8.056 22.55,11.103C22.55,14.151 21.495,16.769 19.346,18.879C17.198,20.95 14.58,22.005 11.454,22.005C8.328,22.005 5.789,20.95 3.679,18.84C1.608,16.769 0.553,14.112 0.553,10.986L0.592,10.908ZM5.476,10.986C5.476,13.057 6.023,14.659 7.117,15.87C8.25,17.082 9.735,17.707 11.571,17.707C13.408,17.707 14.931,17.121 16.025,15.909C17.119,14.698 17.705,13.096 17.705,11.103C17.705,9.111 17.158,7.509 16.025,6.298C14.892,5.086 13.408,4.461 11.571,4.461C9.735,4.461 8.289,5.086 7.156,6.298C6.023,7.509 5.476,9.072 5.476,10.986Z" fill="#1D1D1E"/>
</svg>
