<svg width="72" height="72" viewBox="0 0 72 72" fill="none" xmlns="http://www.w3.org/2000/svg" xmlns:xlink="http://www.w3.org/1999/xlink">
<path d="M48.989,41.488L64.962,68.928L68.516,65.373L63.513,49.703L68.343,44.871L62.306,38.83L60.581,40.556L55.992,26.163L62.789,19.363C66.204,15.946 68.688,11.701 69.999,7.041L72,0L64.962,2.002C60.305,3.314 56.096,5.799 52.646,9.216L45.85,16.015L31.463,11.425L33.188,9.699L27.151,3.659L22.321,8.491L6.658,3.486L3.105,7.041L30.532,23.022L34.913,27.406L20.044,45.595L3.967,40.591L0,44.56L13.248,53.223L6.141,65.856L18.768,58.746L27.427,72L31.394,68.031L26.392,51.946L44.573,37.07L48.954,41.453L48.989,41.488Z" fill="#1D1D1F"/>
</svg>
